<svg version="1" xmlns="http://www.w3.org/2000/svg" width="4116" height="4116" viewBox="0 0 3087.000000 3087.000000"><path d="M1537.5 92.4c-2.2 1.1-7 3.4-10.5 5-3.6 1.6-10.7 4.9-15.8 7.3-5.2 2.4-9.5 4.3-9.7 4.3-.2 0-4.1 1.8-8.7 3.9-4.6 2.1-20 9.2-34.3 15.6-14.3 6.4-28.9 13.1-32.5 14.7-3.6 1.7-15.7 7.2-27 12.3-24.2 11-29.4 13.3-41.8 19.1-5.2 2.4-9.6 4.4-9.8 4.4-.2 0-3.9 1.6-8.1 3.6-4.3 2-12.7 5.9-18.8 8.6-6 2.8-13 5.9-15.5 7.1-2.5 1.1-4.7 2.1-5 2.2-.3.1-3.6 1.6-7.4 3.3-3.8 1.8-7 3.2-7.2 3.2-.1 0-5.5 2.5-11.9 5.5-6.3 3-11.8 5.5-12 5.5-.4 0-5.5 2.3-24.3 11.1-4.6 2.2-8.5 3.9-8.7 3.9-.2 0-3.6 1.5-7.7 3.4-4 1.8-17 7.8-28.8 13.1-11.8 5.4-22.2 10.2-23 10.6-.8.4-7.6 3.5-15 6.8-7.4 3.2-17.1 7.6-21.5 9.6-11.6 5.4-15.7 7.3-38 17.3-11 4.9-22.9 10.3-26.5 12-3.6 1.7-9.2 4.2-12.5 5.7-10.2 4.6-60.7 27.5-65.5 29.7-2.5 1.1-16.9 7.7-32 14.5-32.4 14.7-39.9 18.1-42.2 19.4-1 .5-2.4.9-3.2.9-.7 0-1.9.6-2.5 1.4-.7.8-2.2 1.7-3.5 2-1.3.3-6.1 2.3-10.7 4.5-7.4 3.4-16.7 7.7-35.9 16.4-3 1.4-10 4.5-15.5 7s-13.5 6.1-17.8 8.1c-4.3 2-8 3.6-8.2 3.6-.1 0-4.9 2.2-10.6 4.8-5.7 2.7-12.4 5.8-14.9 6.9-14 6.3-24.3 11-30.5 13.9-12.6 5.8-19 8.7-20 9-.5.1-7.7 3.3-16 7.2-21.1 9.7-26.5 12.1-26.8 12-.1-.1-1.5.5-3.2 1.5-1.6.9-5.7 2.8-9 4.3s-9.4 4.2-13.5 6.1c-4.1 1.9-8.8 4.1-10.5 4.8-1.6.7-5.9 2.6-9.5 4.3-3.6 1.6-13.7 6.2-22.5 10.2-8.8 4-19.4 8.8-23.5 10.8-4.1 1.9-7.7 3.6-8 3.7-1.5.5-5.3 2.1-11.5 5-3.8 1.8-14.2 6.5-23 10.5s-18.5 8.4-21.5 9.8c-3 1.4-5.7 2.6-6 2.7-.3 0-3 1.2-6 2.7-7 3.2-14.4 6.6-19.5 8.8-3.9 1.7-9.9 4.4-22 10-3.3 1.5-8.5 3.9-11.5 5.3-3 1.3-8.4 3.8-12 5.5-3.6 1.6-13 5.9-21 9.5-15.5 7-22.3 10-33.8 15.3-4.1 1.9-7.5 3.4-7.7 3.4-.2 0-5 2.2-10.7 4.9-5.6 2.7-12.3 5.8-14.8 6.9-14.6 6.5-46.6 21-53 23.9-4.1 1.9-9.3 4.3-11.5 5.3-2.2 1-7.5 3.4-11.8 5.4-4.3 2-8 3.6-8.2 3.6-.2 0-4.8 2.1-10.2 4.6-5.4 2.5-18.8 8.6-29.8 13.6-11 4.9-21.8 9.8-24 10.8-2.2 1-9.4 4.3-16 7.3l-12 5.5.1 5.9c.1 3.2.4 9.4.8 13.8.3 4.4.8 11.4 1 15.5l1.1 15c1.1 13.5 1.5 19.4 2 27.5.6 9.4 1.1 16.8 2 28.5.3 4.7.8 11 1 14 .2 3 .7 9.3 1 14 .4 4.7.8 11 1 14 1.1 16.6 1.6 23.9 1.9 27.5.3 2.2.7 8.5 1.1 14 .3 5.5.8 12 1 14.5.2 2.5.6 9 1 14.5.3 5.5.8 11.6 1 13.5.2 1.9.6 8.2 1 14 .3 5.8.8 12.3 1 14.5.2 2.2.6 8.5 1 14s.8 11.6 1 13.5c.2 1.9.6 8 1 13.5.3 5.5.7 11.6 1 13.5.2 1.9.6 8.4 1 14.5.7 11.5.9 14.8 1.9 28 .3 4.4.8 11.4 1.1 15.5 1.1 15.7 1.6 22.7 2 28.5.3 3.3.7 9.1 1 13 .2 3.8.6 9.9.9 13.5.3 3.6.8 10.5 1.1 15.5.3 4.9.7 11.2 1 14 .5 5.4 1.4 18.2 2.1 28.5.2 3.6.6 8.7.8 11.5.2 2.7.7 9.5 1 15 .4 5.5.9 12.3 1.1 15 .3 2.8.7 8.9 1 13.5.3 4.7.7 11.2 1 14.5.2 3.3.7 9.4 1 13.5.3 4.1.8 10.6 1 14.5.3 3.8.8 10.4 1 14.5.3 4.1.7 10.2.9 13.5.3 3.3.8 10 1.1 15 .3 4.9.8 11.5 1 14.5.3 3 .7 8.9 1 13 .3 4.1.7 10.4 1 14 .3 3.6.7 9.8 1 13.7.3 4 .8 10.8 1.1 15 .3 4.3.8 10.3.9 13.3.5 6.6 1.4 19.3 2 27.5.3 3.3.7 9.5 1 13.7.3 4.3.7 11.3 1 15.5.3 4.3.8 10.5 1 13.8.3 3.3.7 10 1 15 .3 4.9.8 11 1 13.5.2 2.5.7 8.3 1 13 .3 4.7.8 11 1 14 .2 3 .7 9.8 1 15 .3 5.2.7 11.7 1 14.5.3 2.7.8 8.6 1 13 1.1 16.5 1.8 26.2 3 41 .2 2.7.7 9.9 1 16 .4 6 .8 12.6 1 14.5.3 3.5 1.4 17.8 2 27.5.8 10.7 1.6 22.1 2 27.4.2 3.1.7 9.6 1 14.6.6 9.6 1.2 17.6 1.9 26.5.3 3 .7 9.3 1.1 14 1.3 18.7 1.6 22.7 3 43.5.3 4.4.7 10.5 1 13.5.2 3 .7 10 1 15.5.4 5.5.8 11.6 1 13.5.2 1.9.7 7.8 1 13 .3 5.2.8 12 1 15 .7 8.5 1.5 20.8 2 28 .2 3.6.7 9.6 1 13.5.5 7.2 1.1 15.2 2 28.5.3 4.1.8 10.6 1 14.5.3 3.8.7 10.1 1 14 .2 3.8.7 9.9 1 13.5.3 3.6.7 9.9 1 14 .8 11 1.9 27.7 3 43.5.3 3.8.7 9.5 1 12.5.2 3 .7 9.5 1 14.5.3 4.9.7 11 1 13.5.2 2.5.7 8.5 1 13.5.3 4.9.8 11.9 1.1 15.5.8 12.6 1.4 20.6 1.9 28.5.3 4.4.8 9.8 1 12.1.2 2.2.7 9 1 15 .4 6 .9 12.9 1 15.4.2 2.5.4 5 .4 5.7.1 1.1 11.6 8.9 81.5 55.1 10.9 7.3 20.2 13.2 20.7 13.2s.9.4.9.8c0 .5 1.5 1.6 3.2 2.5 1.8 1 5.1 3.1 7.3 4.8 2.2 1.6 4.7 3.3 5.5 3.7 2.8 1.3 22.5 14.6 22.8 15.4.2.5.7.8 1.2.8s18.3 11.6 39.7 25.7c21.3 14.2 39.4 25.9 40.1 26.1.6.2 1.2.8 1.2 1.3s.5.9 1 .9c.6 0 1.6.5 2.3 1 1.1.9 42.3 28.2 85.7 56.7 8.5 5.6 16 10.7 16.7 11.2.7.6 1.7 1.1 2.3 1.1.5 0 1 .4 1 1 0 .5.4 1 .9 1 1.1 0 13.5 8.2 13.9 9.2.2.5.8.8 1.3.8s13.6 8.5 29.1 18.8c15.6 10.4 31.7 21 35.8 23.7 4.1 2.7 30.1 19.9 57.8 38.2 27.7 18.3 50.7 33.3 51.2 33.3.4 0 1 .4 1.2.8.4 1 9.6 7.2 10.8 7.2.4 0 1 .3 1.2.7.3.7 13.9 10.1 16.3 11.3.6.3 9.6 6.2 20 13.1 17.7 11.7 51.3 33.9 104 68.7 58.9 38.9 108 71.4 137.5 90.9 95.2 62.9 120.1 79.3 120.9 79.3.5 0 1.1.4 1.3.8.2.5 7.5 5.6 16.3 11.4 26.6 17.4 67.7 44.6 90.3 59.6 11.8 7.8 21.7 14.2 22.2 14.2s1 .3 1.2.8c.2.4 3.5 2.7 7.3 5.2 3.9 2.5 7.5 4.9 8 5.3.6.5 8 5.4 16.5 11 13.7 8.9 82.1 54.1 86 56.7 4.4 3.1 29.5 19.6 30.9 20.5.9.5 3 2 4.7 3.2 3.1 2.2 3.3 2.2 5.5.5 4.6-3.5 25-16.2 25.9-16.2.6 0 1-.5 1-1 0-.6.5-1 1.2-1 .6 0 2.5-1 4.2-2.3 2.6-1.9 56.8-36.6 65.2-41.7 2.8-1.7 25.7-16.3 35.4-22.5 3.6-2.3 9.7-6.2 13.5-8.6 3.9-2.5 14.8-9.5 24.3-15.5 9.4-6 22.9-14.6 30-19.1 7-4.5 15.2-9.7 18.2-11.5 3-1.8 6-3.6 6.5-4 .6-.5 3.7-2.6 7-4.7s8-5.1 10.5-6.7c2.5-1.6 5.2-3.3 6.2-3.9 5.8-3.5 13.3-8.3 19.6-12.3 4-2.6 13.2-8.5 20.5-13.1 7.2-4.6 16.1-10.3 19.7-12.6 3.6-2.3 25.9-16.5 49.5-31.5 23.7-15 45.9-29.2 49.5-31.5 7.5-4.8 123.1-78.4 149.7-95.3 9.8-6.2 19.8-12.5 22.3-14.1 2.5-1.6 14.9-9.5 27.5-17.5 12.7-8 23.7-15 24.5-15.6 4.9-3.3 19.7-12.7 21-13.3.8-.4 4.7-2.8 8.7-5.4 8.1-5.4 49.7-31.9 52.8-33.6 1.1-.7 2.2-1.4 2.5-1.7.3-.3 10.8-7.1 23.3-15 12.6-8 23.9-15.2 25.1-16 1.3-.8 4.7-2.9 7.5-4.5 2.8-1.7 5.1-3.3 5.1-3.8 0-.4.4-.7.9-.7.9 0 44-27.1 65.4-41.2 3.2-2.1 6.1-3.8 6.3-3.8.3 0 1-.5 1.7-1 .7-.6 5.3-3.6 10.2-6.6 5-3.1 11.9-7.5 15.5-9.8 7.8-5.1 11.9-7.7 14.2-9.1 1-.5 6.6-4.1 12.5-7.9 22.3-14.3 26.3-16.8 46.3-29.5 11.3-7.1 21-13.5 21.7-14 .7-.6 1.5-1.1 1.8-1.1.3 0 1.8-.9 3.3-1.9 2.4-1.8 24.4-15.8 70.5-45 9.2-5.8 19.2-12.2 22.2-14.1 5.4-3.5 23.9-15.2 31.5-20 2.2-1.4 12.8-8.1 23.5-15 10.8-6.9 20.3-13 21.3-13.5.9-.6 1.9-1.2 2.2-1.5.3-.3 1.6-1.2 3-2 2.5-1.5 14.3-8.9 25.7-16.2 3.2-2 8.7-5.5 12.3-7.8 7.6-4.8 21.1-13.4 38.2-24.3 6.8-4.3 16.8-10.6 22.2-14.1 7.7-4.9 10-6.9 10.2-8.7.1-1.3.5-8.9.8-16.9.4-8 .9-18.6 1.2-23.5.6-11.9 1.3-26.7 1.8-39 .4-9.2 1-20.2 2.1-42.5.3-4.7.7-14.4 1-21.5.3-7.2.7-16.8 1-21.5.2-4.7.7-14.1 1-21 .3-6.9.8-15.9 1-20 .9-17.8 1.6-33.1 2-42 .2-5.2.7-14 1-19.5.3-5.5.7-15.6 1-22.5.2-6.9.7-16.6 1-21.5.6-10 1.3-25.3 2-42 .3-6.1.7-15.1 1-20 .4-8.4 1.1-23.6 2-42.7.4-8.5 1.3-26.7 2.1-41.8.2-4.7.6-13.7.9-20 .6-14.2 1.3-29.1 2-43.5.3-6.1.7-15.6 1-21.2.2-5.6.6-14.3 1-19.5.3-5.1.7-14.5 1-20.8.3-6.3.7-15.8 1-21 .3-5.2.8-15.8 1.1-23.5.3-7.7.7-16.5.9-19.5.1-3 .6-12.3 1-20.5.4-8.3.8-17.9 1-21.5.2-3.6.6-12.5.9-19.9.4-7.4.9-17.3 1.1-22 .2-4.7.7-14.7 1-22.1.3-7.4.8-16.7 1-20.5.3-3.9.7-12.6 1-19.5.3-6.9.7-17 1-22.5 1.3-24.7 2.3-46.2 3-62.5.2-5.2.7-14 1-19.5.3-5.5.7-15.2 1-21.5.2-6.3.7-15.8 1-21 .3-5.2.8-14.7 1-21 .2-6.3.7-16.5 1-22.5.3-6.1.8-14.8 1-19.5 1.1-25.2 1.6-36.3 2-44 .8-14.4 1.5-27.9 2-41.5.3-7.2.8-17.3 1.1-22.5.3-5.2.7-13.8.9-19 .3-5.2.7-14.5 1-20.5.3-6.1.7-15.5 1-21 .2-5.5.6-14.7.9-20.5.3-5.8.8-15.9 1.1-22.5.3-6.6.8-15.4 1-19.5.2-4.1.7-13.4 1-20.5.3-7.2.8-17.7 1.1-23.5.2-5.8.7-14.6.9-19.5.2-5 .7-14.6 1-21.5.4-6.9.8-15.9 1-20 .7-16.3 1.6-35.9 2-44 .9-16.4 1.5-28.6 2-39.5.2-6.1.7-16 1-22 .7-13.8 1.5-30.7 2-40.6l.3-7.7-14.6-6.8c-8.1-3.7-19.8-9.1-26.1-12.1-6.2-2.9-11.4-5.3-11.6-5.3-.2 0-4.5-2-9.7-4.4-10.9-5.1-17.2-8-32.8-15.1-6.3-2.9-14.9-6.8-19-8.8-4.1-1.9-12.7-5.8-19-8.7-17-7.7-26.1-11.9-50.5-23.3-7.7-3.5-16.2-7.5-19-8.7-4.8-2.2-36.1-16.6-49.5-22.8-7.4-3.4-67.2-30.9-74-34-2.5-1.1-8.5-3.9-13.5-6.2-11.4-5.3-15.8-7.3-38.5-17.7-10.2-4.7-22.7-10.5-27.9-12.9-5.1-2.4-9.5-4.4-9.6-4.4-.2 0-4.7-2.1-10.1-4.6-5.4-2.5-15-7-21.4-9.9-6.3-2.9-14.9-6.8-19-8.8-4.1-1.9-12.7-5.8-19-8.7-6.3-2.9-14.4-6.6-18-8.2-3.6-1.7-9-4.2-12-5.5-3-1.4-10.2-4.7-15.9-7.4-5.7-2.7-10.5-4.9-10.7-4.9-.2 0-5-2.2-10.6-4.9-5.7-2.6-17.7-8.2-26.8-12.4-22-10-30.4-13.9-56.5-26-7.7-3.5-16.2-7.4-19-8.7-2.7-1.2-8.1-3.7-12-5.5-3.8-1.8-15.1-7-25-11.5s-21.1-9.7-25-11.5c-3.8-1.8-9.7-4.5-13-6-3.3-1.5-14.8-6.8-25.5-11.7-24.3-11.2-30.2-14-36.5-16.8-2.7-1.2-8.8-4-13.5-6.2-4.7-2.2-13.4-6.3-19.5-9-6-2.8-15.2-7-20.4-9.4-5.1-2.4-9.5-4.4-9.6-4.4-.2 0-5.5-2.5-12-5.5-6.4-3-11.8-5.5-11.9-5.5-.2 0-5-2.2-10.7-4.8-5.7-2.7-12.6-5.9-15.4-7.2-17.5-8-34-15.7-40.3-18.6-4-1.9-7.4-3.4-7.6-3.4-.3 0-10.1-4.5-31.1-14.5-5.5-2.6-10.4-4.8-11-4.9-.5-.2-4.4-1.9-8.5-3.8-4.1-2-10-4.7-13-6.1-3-1.4-14.9-6.8-26.5-12.2-11.5-5.3-23.4-10.8-26.2-12.1-2.9-1.3-7.9-3.6-11-5.1-3.2-1.4-8.5-3.8-11.8-5.3-3.3-1.5-9.4-4.3-13.5-6.3-4.1-1.9-12.4-5.7-18.5-8.5-6-2.7-15.4-7.1-20.8-9.6-5.5-2.5-10-4.6-10.2-4.6-.1 0-4.9-2.2-10.6-4.9-5.7-2.6-12.6-5.9-15.4-7.1-2.7-1.2-8.1-3.7-12-5.5-3.8-1.8-12.6-5.8-19.5-9s-16.7-7.7-21.9-10.1c-5.1-2.4-9.5-4.4-9.6-4.4-.2 0-4.5-2-9.7-4.4-5.1-2.4-11.5-5.3-14.3-6.6-2.7-1.2-8.1-3.7-12-5.5-3.8-1.8-14.6-6.8-24-11-9.3-4.3-17.4-8.2-17.9-8.6-1.2-1.1-1.2-1.1-6.1 1.5z"/></svg>